<svg version="1.1" id="Layer_1" xmlns="http://www.w3.org/2000/svg" xmlns:xlink="http://www.w3.org/1999/xlink" x="0px" y="0px"
	 width="100%" viewBox="0 0 380 367" enable-background="new 0 0 380 367" xml:space="preserve">
<path fill="#000000" opacity="1.000000" stroke="none" 
	d="
M211.000000,368.000000 
	C140.690033,368.000000 70.880066,368.000000 1.035052,368.000000 
	C1.035052,245.730972 1.035052,123.461945 1.035052,1.096454 
	C127.559914,1.096454 254.119919,1.096454 380.839966,1.096454 
	C380.839966,123.333168 380.839966,245.666565 380.839966,368.000000 
	C324.462006,368.000000 267.981018,368.000000 211.000000,368.000000 
M265.623444,245.877075 
	C267.263428,242.528122 269.017456,239.229584 270.523651,235.821487 
	C276.988281,221.193787 280.875702,205.919724 280.929932,189.883118 
	C280.965668,179.311630 280.333160,168.737900 280.593140,157.783295 
	C292.793732,139.677902 305.014740,121.586205 317.170563,103.450813 
	C318.797333,101.023750 320.277832,101.283173 322.397736,102.821533 
	C327.971039,106.866005 333.646057,110.773193 339.346039,114.638512 
	C340.849335,115.657951 342.590210,116.327011 344.529816,117.313522 
	C346.725830,86.430374 348.864594,56.352173 351.114746,24.707754 
	C322.585388,38.516041 295.397675,51.674957 267.061920,65.389542 
	C275.986176,71.505661 284.012238,77.006195 292.315094,82.696426 
	C291.317841,84.264458 290.474213,85.644394 289.579041,86.990036 
	C282.224548,98.045677 274.860474,109.094955 267.059601,119.505043 
	C260.184814,104.628212 250.069260,92.389458 237.504196,81.895302 
	C215.689560,63.676003 190.307785,54.887970 162.359680,53.161469 
	C141.314789,51.861416 120.715858,54.831703 101.203865,63.110569 
	C75.435059,74.044174 55.333290,91.465706 41.962933,116.329994 
	C27.191732,143.799362 23.379665,172.921555 27.907486,203.562622 
	C30.902094,223.828003 38.384930,242.113434 49.397427,259.224701 
	C45.502178,265.092743 41.492973,270.889069 37.741924,276.847900 
	C33.507332,283.574860 34.512802,293.199585 42.084003,298.586151 
	C47.805149,302.656464 58.608200,302.004974 62.855255,296.478546 
	C66.340004,291.944031 69.092300,286.846649 72.780151,282.263184 
	C79.160217,286.488007 85.219109,291.339325 91.986435,294.808746 
	C106.575119,302.287964 122.064415,306.684814 138.582199,308.219208 
	C154.986771,309.743011 171.070496,309.009644 187.029373,305.377869 
	C205.040619,301.279022 221.147888,293.014465 236.257919,282.598602 
	C244.852127,293.244690 253.327469,303.989563 262.070862,314.511719 
	C272.828308,327.457642 283.925537,340.121704 294.647736,353.096161 
	C300.571106,360.263824 313.860565,361.171875 319.814728,354.797211 
	C326.628021,347.502716 333.939270,340.675995 340.920166,333.534637 
	C347.101349,327.211395 348.003632,316.547028 340.822449,310.312225 
	C332.838318,303.380280 324.965698,296.318542 316.920776,289.458435 
	C307.254944,281.216187 297.475647,273.106506 287.713287,264.978088 
	C280.159485,258.688538 272.556183,252.458435 265.623444,245.877075 
z"/>
<path fill="#FBBC15" opacity="1.000000" stroke="none" 
	d="
M49.988464,258.846405 
	C38.384930,242.113434 30.902094,223.828003 27.907486,203.562622 
	C23.379665,172.921555 27.191732,143.799362 41.962933,116.329994 
	C55.333290,91.465706 75.435059,74.044174 101.203865,63.110569 
	C120.715858,54.831703 141.314789,51.861416 162.359680,53.161469 
	C190.307785,54.887970 215.689560,63.676003 237.504196,81.895302 
	C250.069260,92.389458 260.184814,104.628212 267.166626,120.164825 
	C255.956894,137.545944 244.681656,154.295593 233.306381,170.977020 
	C227.349838,179.712051 221.217758,188.327393 215.093933,196.568024 
	C215.031235,186.454666 216.107895,176.629669 214.856934,167.110565 
	C210.245621,132.020859 177.903839,108.036057 143.172714,114.224991 
	C119.009926,118.530693 102.902885,133.399277 94.984634,156.755081 
	C90.739937,169.275330 89.962639,182.108139 92.178650,195.514572 
	C93.646523,201.095474 94.365479,206.704666 96.842163,211.383438 
	C100.121376,217.578278 104.775421,223.045349 108.944183,229.166656 
	C124.429535,244.873199 142.792328,251.651932 164.390213,247.886932 
	C174.684509,246.092422 184.390686,242.372040 192.589050,235.004440 
	C195.996704,236.959061 199.148163,238.754700 202.093674,240.841095 
	C211.330902,247.384171 219.923248,245.907867 226.414673,236.448715 
	C232.232956,227.970383 237.936584,219.413376 243.749329,210.931198 
	C255.812302,193.328445 267.914062,175.752274 279.999878,158.165176 
	C280.333160,168.737900 280.965668,179.311630 280.929932,189.883118 
	C280.875702,205.919724 276.988281,221.193787 270.523651,235.821487 
	C269.017456,239.229584 267.263428,242.528122 264.962921,246.093597 
	C257.404785,258.688049 248.249725,269.219421 237.877792,278.776764 
	C236.984207,279.600189 236.552124,280.924438 235.905670,282.016052 
	C221.147888,293.014465 205.040619,301.279022 187.029373,305.377869 
	C171.070496,309.009644 154.986771,309.743011 138.582199,308.219208 
	C122.064415,306.684814 106.575119,302.287964 91.986435,294.808746 
	C85.219109,291.339325 79.160217,286.488007 72.315506,281.826233 
	C64.563400,273.875000 57.275936,266.360687 49.988464,258.846405 
z"/>
<path fill="#32A853" opacity="1.000000" stroke="none" 
	d="
M280.296509,157.974243 
	C267.914062,175.752274 255.812302,193.328445 243.749329,210.931198 
	C237.936584,219.413376 232.232956,227.970383 226.414673,236.448715 
	C219.923248,245.907867 211.330902,247.384171 202.093674,240.841095 
	C199.148163,238.754700 195.996704,236.959061 192.406937,234.704956 
	C172.439835,220.008286 153.005249,205.637024 133.389603,191.131866 
	C125.065445,203.912003 116.952019,216.368591 108.838600,228.825195 
	C104.775421,223.045349 100.121376,217.578278 96.842163,211.383438 
	C94.365479,206.704666 93.646523,201.095474 92.457512,195.323471 
	C100.517952,183.162216 108.252090,171.568436 116.019287,159.996841 
	C121.100769,152.426437 130.561371,150.313385 138.067459,155.594940 
	C151.521576,165.061707 164.747406,174.853806 178.036819,184.553528 
	C188.168594,191.948593 198.251175,199.411072 208.360153,206.846863 
	C210.890152,203.184662 213.027573,200.090729 215.164978,196.996796 
	C221.217758,188.327393 227.349838,179.712051 233.306381,170.977020 
	C244.681656,154.295593 255.956894,137.545944 267.386475,120.485382 
	C274.860474,109.094955 282.224548,98.045677 289.579041,86.990036 
	C290.474213,85.644394 291.317841,84.264458 292.315094,82.696426 
	C284.012238,77.006195 275.986176,71.505661 267.061920,65.389542 
	C295.397675,51.674957 322.585388,38.516041 351.114746,24.707754 
	C348.864594,56.352173 346.725830,86.430374 344.529816,117.313522 
	C342.590210,116.327011 340.849335,115.657951 339.346039,114.638512 
	C333.646057,110.773193 327.971039,106.866005 322.397736,102.821533 
	C320.277832,101.283173 318.797333,101.023750 317.170563,103.450813 
	C305.014740,121.586205 292.793732,139.677902 280.296509,157.974243 
z"/>
<path fill="#3F49CB" opacity="1.000000" stroke="none" 
	d="
M236.081787,282.307312 
	C236.552124,280.924438 236.984207,279.600189 237.877792,278.776764 
	C248.249725,269.219421 257.404785,258.688049 264.638611,246.256012 
	C272.556183,252.458435 280.159485,258.688538 287.713287,264.978088 
	C297.475647,273.106506 307.254944,281.216187 316.920776,289.458435 
	C324.965698,296.318542 332.838318,303.380280 340.822449,310.312225 
	C348.003632,316.547028 347.101349,327.211395 340.920166,333.534637 
	C333.939270,340.675995 326.628021,347.502716 319.814728,354.797211 
	C313.860565,361.171875 300.571106,360.263824 294.647736,353.096161 
	C283.925537,340.121704 272.828308,327.457642 262.070862,314.511719 
	C253.327469,303.989563 244.852127,293.244690 236.081787,282.307312 
M301.981293,310.483154 
	C306.950623,314.826050 311.741760,319.405701 317.000580,323.363922 
	C318.528412,324.513885 321.720459,324.684204 323.584839,323.922058 
	C328.931366,321.736450 328.338928,315.908081 322.844513,311.355652 
	C315.733978,305.464203 308.825806,299.328857 301.812988,293.319000 
	C295.052124,287.525085 288.259003,281.768799 281.500000,275.972687 
	C278.404694,273.318329 275.524597,273.704315 272.940063,276.619934 
	C270.172485,279.742035 270.442627,282.958252 273.339905,285.787384 
	C276.052856,288.436554 278.973236,290.877838 281.857941,293.345642 
	C288.372101,298.918396 294.920624,304.451050 301.981293,310.483154 
z"/>
<path fill="#32A753" opacity="1.000000" stroke="none" 
	d="
M49.692947,259.035553 
	C57.275936,266.360687 64.563400,273.875000 72.010063,281.694031 
	C69.092300,286.846649 66.340004,291.944031 62.855255,296.478546 
	C58.608200,302.004974 47.805149,302.656464 42.084003,298.586151 
	C34.512802,293.199585 33.507332,283.574860 37.741924,276.847900 
	C41.492973,270.889069 45.502178,265.092743 49.692947,259.035553 
z"/>
<path fill="#000000" opacity="1.000000" stroke="none" 
	d="
M215.093933,196.568024 
	C213.027573,200.090729 210.890152,203.184662 208.360153,206.846863 
	C198.251175,199.411072 188.168594,191.948593 178.036819,184.553528 
	C164.747406,174.853806 151.521576,165.061707 138.067459,155.594940 
	C130.561371,150.313385 121.100769,152.426437 116.019287,159.996841 
	C108.252090,171.568436 100.517952,183.162216 92.490906,194.937668 
	C89.962639,182.108139 90.739937,169.275330 94.984634,156.755081 
	C102.902885,133.399277 119.009926,118.530693 143.172714,114.224991 
	C177.903839,108.036057 210.245621,132.020859 214.856934,167.110565 
	C216.107895,176.629669 215.031235,186.454666 215.093933,196.568024 
z"/>
<path fill="#000000" opacity="1.000000" stroke="none" 
	d="
M108.944183,229.166656 
	C116.952019,216.368591 125.065445,203.912003 133.389603,191.131866 
	C153.005249,205.637024 172.439835,220.008286 192.056519,234.679016 
	C184.390686,242.372040 174.684509,246.092422 164.390213,247.886932 
	C142.792328,251.651932 124.429535,244.873199 108.944183,229.166656 
z"/>
<path fill="#000000" opacity="1.000000" stroke="none" 
	d="
M301.718231,310.241577 
	C294.920624,304.451050 288.372101,298.918396 281.857941,293.345642 
	C278.973236,290.877838 276.052856,288.436554 273.339905,285.787384 
	C270.442627,282.958252 270.172485,279.742035 272.940063,276.619934 
	C275.524597,273.704315 278.404694,273.318329 281.500000,275.972687 
	C288.259003,281.768799 295.052124,287.525085 301.812988,293.319000 
	C308.825806,299.328857 315.733978,305.464203 322.844513,311.355652 
	C328.338928,315.908081 328.931366,321.736450 323.584839,323.922058 
	C321.720459,324.684204 318.528412,324.513885 317.000580,323.363922 
	C311.741760,319.405701 306.950623,314.826050 301.718231,310.241577 
z"/>
</svg>